<?xml version="1.0" encoding="UTF-8"?>
<svg width="113px" height="120px" viewBox="0 0 113 120" version="1.1" xmlns="http://www.w3.org/2000/svg" xmlns:xlink="http://www.w3.org/1999/xlink">
    <!-- Generator: Sketch 55.2 (78181) - https://sketchapp.com -->
    <title>iconfinder_Stall002_1522496</title>
    <desc>Created with Sketch.</desc>
    <g id="Page-1" stroke="none" stroke-width="1" fill="none" fill-rule="evenodd">
        <g id="iconfinder_Stall002_1522496">
            <path d="M112.037647,31.4741176 L100.925882,3.01529412 C100.396471,1.66117647 99.0905882,0.769411765 97.6376471,0.769411765 L15.3717647,0.769411765 C13.9164706,0.769411765 12.6105882,1.66235294 12.0835294,3.01764706 L1,31.4764706 C0.841176471,31.8847059 0.758823529,32.3188235 0.758823529,32.7576471 L0.758823529,39.2576471 C0.758823529,45.1247059 4.96823529,50.0894118 10.7258824,51.6964706 L14.2105882,77.4141176 L14.2105882,109.689412 C14.2105882,109.787059 14.2317647,109.877647 14.2388235,109.972941 L14.2117647,109.972941 L14.2117647,119.229412 L21.2705882,119.229412 L21.2705882,113.218824 L91.7388235,113.218824 L91.7388235,119.229412 L98.7976471,119.229412 L98.7976471,109.972941 L98.7694118,109.972941 C98.7776471,109.877647 98.7976471,109.787059 98.7976471,109.689412 L98.7976471,77.4141176 L102.281176,51.7047059 C108.054118,50.1082353 112.278824,45.1364706 112.278824,39.2588235 L112.278824,32.7588235 C112.278824,32.3188235 112.197647,31.8847059 112.037647,31.4741176 L112.037647,31.4741176 Z M103.582353,29.2294118 L90.5105882,29.2294118 L88.6105882,7.82941176 L95.2270588,7.82941176 L103.582353,29.2294118 Z M42.8388235,29.2294118 L29.6152941,29.2294118 L31.5129412,7.82941176 L43.4705882,7.82941176 L42.8388235,29.2294118 Z M50.5329412,7.82823529 L62.5035294,7.82823529 L63.1376471,29.2282353 L49.9,29.2282353 L50.5329412,7.82823529 Z M28.9882353,36.2882353 L42.6305882,36.2882353 L42.5458824,39.1552941 L42.5541176,39.1552941 C42.5529412,39.1905882 42.5435294,39.2235294 42.5435294,39.2588235 C42.5435294,42.5294118 39.44,45.1894118 35.6258824,45.1894118 C31.8494118,45.1894118 28.7752941,42.5788235 28.7164706,39.3529412 L28.9882353,36.2882353 Z M49.6917647,36.2882353 L63.3470588,36.2882353 L63.4352941,39.2811765 C63.4211765,42.5411765 60.3235294,45.1894118 56.52,45.1894118 C52.7117647,45.1894118 49.6129412,42.5376471 49.6035294,39.2741176 L49.6917647,36.2882353 Z M70.4094118,36.2882353 L84.0505882,36.2882353 L84.3223529,39.3529412 C84.2623529,42.58 81.1882353,45.1894118 77.4117647,45.1894118 C73.5988235,45.1894118 70.4952941,42.5294118 70.4952941,39.2588235 C70.4952941,39.2235294 70.4858824,39.1894118 70.4847059,39.1541176 L70.4941176,39.1541176 L70.4094118,36.2882353 Z M70.2,29.2294118 L69.5658824,7.82941176 L81.5235294,7.82941176 L83.4235294,29.2294118 L70.2,29.2294118 Z M17.7858824,7.82823529 L24.4270588,7.82823529 L22.5294118,29.2282353 L9.45058824,29.2282353 L17.7858824,7.82823529 Z M7.81882353,39.2588235 L7.81882353,36.2882353 L21.9023529,36.2882353 L21.6658824,38.9470588 L21.6835294,38.9482353 C21.6741176,39.0517647 21.6517647,39.1517647 21.6517647,39.2588235 C21.6517647,42.5294118 18.5494118,45.1894118 14.7364706,45.1894118 C10.9223529,45.1894118 7.81882353,42.5294118 7.81882353,39.2588235 L7.81882353,39.2588235 Z M20.3729412,70.3152941 L17.8788235,51.9117647 C20.7494118,51.2964706 23.2870588,49.8611765 25.1823529,47.88 C27.7435294,50.5588235 31.4776471,52.2482353 35.6270588,52.2482353 C39.7776471,52.2482353 43.5117647,50.5576471 46.0741176,47.8788235 C48.6364706,50.5576471 52.3705882,52.2482353 56.5211765,52.2482353 C60.6717647,52.2482353 64.4058824,50.5576471 66.9670588,47.8788235 C69.5294118,50.5576471 73.2635294,52.2482353 77.4129412,52.2482353 C81.5623529,52.2482353 85.2964706,50.5576471 87.8588235,47.8788235 C89.7458824,49.8529412 92.2741176,51.2835294 95.1329412,51.9035294 L92.6388235,70.3141176 L20.3729412,70.3141176 L20.3729412,70.3152941 Z M98.3035294,45.1894118 C94.4905882,45.1894118 91.3870588,42.5294118 91.3870588,39.2588235 C91.3870588,39.1529412 91.3647059,39.0529412 91.3564706,38.9482353 L91.3741176,38.9470588 L91.1388235,36.2882353 L105.221176,36.2882353 L105.221176,39.2588235 C105.22,42.5294118 102.116471,45.1894118 98.3035294,45.1894118 Z" id="Shape" fill="#000000" fill-rule="nonzero"></path>
            <text id="TOWELS" font-family="HeroNew-SemiBold, Hero New" font-size="16" font-weight="500" letter-spacing="-0.1" fill="#FFFFFF">
                <tspan x="23" y="97">TOWELS</tspan>
            </text>
        </g>
    </g>
</svg>