<?xml version="1.0" encoding="UTF-8"?>
<svg width="128px" height="136px" viewBox="0 0 128 136" version="1.1" xmlns="http://www.w3.org/2000/svg" xmlns:xlink="http://www.w3.org/1999/xlink">
    <!-- Generator: Sketch 55.2 (78181) - https://sketchapp.com -->
    <title>iconfinder_Stall002_1522496</title>
    <desc>Created with Sketch.</desc>
    <g id="Page-1" stroke="none" stroke-width="1" fill="none" fill-rule="evenodd">
        <g id="iconfinder_Stall002_1522496">
            <path d="M126.976,35.6706667 L114.382667,3.41733333 C113.782667,1.88266667 112.302667,0.872 110.656,0.872 L17.4213333,0.872 C15.772,0.872 14.292,1.884 13.6946667,3.42 L1.13333333,35.6733333 C0.953333333,36.136 0.86,36.628 0.86,37.1253333 L0.86,44.492 C0.86,51.1413333 5.63066667,56.768 12.156,58.5893333 L16.1053333,87.736 L16.1053333,124.314667 C16.1053333,124.425333 16.1293333,124.528 16.1373333,124.636 L16.1066667,124.636 L16.1066667,135.126667 L24.1066667,135.126667 L24.1066667,128.314667 L103.970667,128.314667 L103.970667,135.126667 L111.970667,135.126667 L111.970667,124.636 L111.938667,124.636 C111.948,124.528 111.970667,124.425333 111.970667,124.314667 L111.970667,87.736 L115.918667,58.5986667 C122.461333,56.7893333 127.249333,51.1546667 127.249333,44.4933333 L127.249333,37.1266667 C127.249333,36.628 127.157333,36.136 126.976,35.6706667 L126.976,35.6706667 Z M117.393333,33.1266667 L102.578667,33.1266667 L100.425333,8.87333333 L107.924,8.87333333 L117.393333,33.1266667 Z M48.5506667,33.1266667 L33.564,33.1266667 L35.7146667,8.87333333 L49.2666667,8.87333333 L48.5506667,33.1266667 Z M57.2706667,8.872 L70.8373333,8.872 L71.556,33.1253333 L56.5533333,33.1253333 L57.2706667,8.872 Z M32.8533333,41.1266667 L48.3146667,41.1266667 L48.2186667,44.376 L48.228,44.376 C48.2266667,44.416 48.216,44.4533333 48.216,44.4933333 C48.216,48.2 44.6986667,51.2146667 40.376,51.2146667 C36.096,51.2146667 32.612,48.256 32.5453333,44.6 L32.8533333,41.1266667 Z M56.3173333,41.1266667 L71.7933333,41.1266667 L71.8933333,44.5186667 C71.8773333,48.2133333 68.3666667,51.2146667 64.056,51.2146667 C59.74,51.2146667 56.228,48.2093333 56.2173333,44.5106667 L56.3173333,41.1266667 Z M79.7973333,41.1266667 L95.2573333,41.1266667 L95.5653333,44.6 C95.4973333,48.2573333 92.0133333,51.2146667 87.7333333,51.2146667 C83.412,51.2146667 79.8946667,48.2 79.8946667,44.4933333 C79.8946667,44.4533333 79.884,44.4146667 79.8826667,44.3746667 L79.8933333,44.3746667 L79.7973333,41.1266667 Z M79.56,33.1266667 L78.8413333,8.87333333 L92.3933333,8.87333333 L94.5466667,33.1266667 L79.56,33.1266667 Z M20.1573333,8.872 L27.684,8.872 L25.5333333,33.1253333 L10.7106667,33.1253333 L20.1573333,8.872 Z M8.86133333,44.4933333 L8.86133333,41.1266667 L24.8226667,41.1266667 L24.5546667,44.14 L24.5746667,44.1413333 C24.564,44.2586667 24.5386667,44.372 24.5386667,44.4933333 C24.5386667,48.2 21.0226667,51.2146667 16.7013333,51.2146667 C12.3786667,51.2146667 8.86133333,48.2 8.86133333,44.4933333 L8.86133333,44.4933333 Z M23.0893333,79.6906667 L20.2626667,58.8333333 C23.516,58.136 26.392,56.5093333 28.54,54.264 C31.4426667,57.3 35.6746667,59.2146667 40.3773333,59.2146667 C45.0813333,59.2146667 49.3133333,57.2986667 52.2173333,54.2626667 C55.1213333,57.2986667 59.3533333,59.2146667 64.0573333,59.2146667 C68.7613333,59.2146667 72.9933333,57.2986667 75.896,54.2626667 C78.8,57.2986667 83.032,59.2146667 87.7346667,59.2146667 C92.4373333,59.2146667 96.6693333,57.2986667 99.5733333,54.2626667 C101.712,56.5 104.577333,58.1213333 107.817333,58.824 L104.990667,79.6893333 L23.0893333,79.6893333 L23.0893333,79.6906667 Z M111.410667,51.2146667 C107.089333,51.2146667 103.572,48.2 103.572,44.4933333 C103.572,44.3733333 103.546667,44.26 103.537333,44.1413333 L103.557333,44.14 L103.290667,41.1266667 L119.250667,41.1266667 L119.250667,44.4933333 C119.249333,48.2 115.732,51.2146667 111.410667,51.2146667 Z" id="Shape" fill="#000000" fill-rule="nonzero"></path>
            <text id="TOWELS" font-family="HeroNew-SemiBold, Hero New" font-size="18" font-weight="500" letter-spacing="-0.1125" fill="#FFFFFF">
                <tspan x="26" y="109">TOWELS</tspan>
            </text>
        </g>
    </g>
</svg>