<?xml version="1.0" encoding="utf-8"?>
<!-- Generator: Adobe Illustrator 20.0.0, SVG Export Plug-In . SVG Version: 6.00 Build 0)  -->
<svg version="1.1" id="Layer_1" xmlns="http://www.w3.org/2000/svg" xmlns:xlink="http://www.w3.org/1999/xlink" x="0px" y="0px"
	 viewBox="0 0 1080 1080" style="enable-background:new 0 0 1080 1080;" xml:space="preserve">
<style type="text/css">
	.st0{fill:#FFFFFF;}
	.st1{fill:url(#SVGID_1_);}
	.st2{fill:url(#SVGID_2_);}
	.st3{fill:url(#SVGID_3_);}
	.st4{fill:url(#SVGID_4_);}
	.st5{fill:url(#SVGID_5_);}
	.st6{fill:url(#SVGID_6_);}
	.st7{fill:url(#SVGID_7_);}
	.st8{fill:url(#SVGID_8_);}
	.st9{fill:url(#SVGID_9_);}
	.st10{fill:url(#SVGID_10_);}
	.st11{fill:url(#SVGID_11_);}
	.st12{fill:url(#SVGID_12_);}
	.st13{fill:url(#SVGID_13_);}
	.st14{fill:url(#SVGID_14_);}
	.st15{fill:url(#SVGID_15_);}
	.st16{fill:url(#SVGID_16_);}
	.st17{fill:url(#SVGID_17_);}
	.st18{fill:url(#SVGID_18_);}
	.st19{fill:#282455;}
	.st20{opacity:0.5;}
	.st21{fill:url(#SVGID_19_);}
	.st22{fill:url(#SVGID_20_);}
	.st23{fill:url(#SVGID_21_);}
	.st24{fill:url(#SVGID_22_);}
	.st25{fill:url(#SVGID_23_);}
	.st26{fill:url(#SVGID_24_);}
	.st27{fill:url(#SVGID_25_);}
	.st28{fill:url(#SVGID_26_);}
	.st29{fill:url(#SVGID_27_);}
	.st30{fill:url(#SVGID_28_);}
	.st31{fill:url(#SVGID_29_);}
	.st32{fill:url(#SVGID_30_);}
	.st33{fill:url(#SVGID_31_);}
	.st34{fill:url(#SVGID_32_);}
	.st35{fill:url(#SVGID_33_);}
	.st36{fill:url(#SVGID_34_);}
	.st37{fill:url(#SVGID_35_);}
	.st38{fill:url(#SVGID_36_);}
	.st39{fill:#231F46;}
	.st40{fill:url(#SVGID_37_);}
	.st41{fill:url(#SVGID_38_);}
	.st42{fill:url(#SVGID_39_);}
	.st43{fill:url(#SVGID_40_);}
	.st44{fill:url(#SVGID_41_);}
	.st45{fill:url(#SVGID_42_);}
	.st46{fill:url(#SVGID_43_);}
	.st47{fill:url(#SVGID_44_);}
	.st48{fill:url(#SVGID_45_);}
	.st49{fill:#F1F2F2;}
	.st50{fill:#BCBEC0;}
	.st51{fill:url(#SVGID_46_);}
	.st52{fill:url(#SVGID_47_);}
	.st53{fill:url(#SVGID_48_);}
	.st54{fill:url(#SVGID_49_);}
	.st55{fill:url(#SVGID_50_);}
	.st56{fill:url(#SVGID_51_);}
	.st57{fill:url(#SVGID_52_);}
	.st58{fill:url(#SVGID_53_);}
	.st59{fill:url(#SVGID_54_);}
	.st60{fill:url(#SVGID_55_);}
	.st61{fill:url(#SVGID_56_);}
	.st62{fill:url(#SVGID_57_);}
	.st63{fill:url(#SVGID_58_);}
	.st64{fill:url(#SVGID_59_);}
	.st65{fill:url(#SVGID_60_);}
	.st66{fill:url(#SVGID_61_);}
	.st67{fill:url(#SVGID_62_);}
	.st68{fill:url(#SVGID_63_);}
	.st69{fill:url(#SVGID_64_);}
	.st70{fill:url(#SVGID_65_);}
	.st71{fill:url(#SVGID_66_);}
	.st72{fill:url(#SVGID_67_);}
	.st73{fill:url(#SVGID_68_);}
	.st74{fill:url(#SVGID_69_);}
	.st75{fill:url(#SVGID_70_);}
	.st76{fill:url(#SVGID_71_);}
	.st77{fill:url(#SVGID_72_);}
	.st78{fill:url(#SVGID_73_);}
	.st79{opacity:0.7;}
	.st80{opacity:0.8;fill:#FFFFFF;}
	.st81{opacity:0.5;fill:#231F46;}
	.st82{opacity:0.5;fill:none;stroke:#FFFFFF;stroke-width:0.5;stroke-miterlimit:10;}
</style>
<rect class="st0" width="1080" height="1080"/>
<g>
	<g>
		<linearGradient id="SVGID_1_" gradientUnits="userSpaceOnUse" x1="414.1508" y1="713.5102" x2="680.8517" y2="381.1598">
			<stop  offset="0" style="stop-color:#662D91"/>
			<stop  offset="1" style="stop-color:#1B75BC"/>
		</linearGradient>
		<path class="st1" d="M585,379.6c-14.8,11.9-23.8,29.9-23.8,49.5v273.5h-42.6V429c0-28.5,23.2-51.6,51.6-51.6
			C575.3,377.4,580.2,378.1,585,379.6z"/>
		<linearGradient id="SVGID_2_" gradientUnits="userSpaceOnUse" x1="458.4279" y1="749.0412" x2="725.1288" y2="416.6908">
			<stop  offset="0" style="stop-color:#662D91"/>
			<stop  offset="1" style="stop-color:#1B75BC"/>
		</linearGradient>
		<path class="st2" d="M657.8,379.6c-9,7.2-15.7,16.6-19.7,27.3c-2.6,7-4,14.4-4,22.2v273.5h-42.6V429c0-28.5,23.2-51.6,51.6-51.6
			C648.1,377.4,653,378.1,657.8,379.6z"/>
		<g>
			<linearGradient id="SVGID_3_" gradientUnits="userSpaceOnUse" x1="477.2893" y1="764.1769" x2="743.9902" y2="431.8265">
				<stop  offset="0" style="stop-color:#662D91"/>
				<stop  offset="1" style="stop-color:#1B75BC"/>
			</linearGradient>
			<path class="st3" d="M795,461.9L795,461.9c0-8.2-6.7-14.9-14.9-14.9H652.5v29.7h127.6C788.3,476.7,795,470.1,795,461.9z"/>
			<linearGradient id="SVGID_4_" gradientUnits="userSpaceOnUse" x1="458.9288" y1="749.4432" x2="725.6297" y2="417.0928">
				<stop  offset="0" style="stop-color:#662D91"/>
				<stop  offset="1" style="stop-color:#1B75BC"/>
			</linearGradient>
			<path class="st4" d="M652.5,436.6h127.6c8.2,0,14.9-6.7,14.9-14.9v0c0-8.2-6.7-14.9-14.9-14.9H656.5c-2.6,7-4,14.5-4,22.2V436.6z
				"/>
		</g>
		<linearGradient id="SVGID_5_" gradientUnits="userSpaceOnUse" x1="369.8709" y1="677.9769" x2="636.5718" y2="345.6265">
			<stop  offset="0" style="stop-color:#662D91"/>
			<stop  offset="1" style="stop-color:#1B75BC"/>
		</linearGradient>
		<path class="st5" d="M512.2,379.6c-14.8,11.8-23.7,29.9-23.7,49.5v273.5h-42.6V429c0-7.9,1.8-15.4,5-22.2
			c8.3-17.4,26.1-29.4,46.6-29.4C502.5,377.4,507.5,378.1,512.2,379.6z"/>
		<g>
			<linearGradient id="SVGID_6_" gradientUnits="userSpaceOnUse" x1="264.0241" y1="593.0381" x2="530.725" y2="260.6878">
				<stop  offset="0" style="stop-color:#662D91"/>
				<stop  offset="1" style="stop-color:#1B75BC"/>
			</linearGradient>
			<path class="st6" d="M445.8,447v29.7h-146c-8.2,0-14.9-6.7-14.9-14.9c0-4.1,1.7-7.8,4.4-10.5s6.4-4.4,10.5-4.4H445.8z"/>
			<linearGradient id="SVGID_7_" gradientUnits="userSpaceOnUse" x1="244.4395" y1="577.3221" x2="511.1404" y2="244.9718">
				<stop  offset="0" style="stop-color:#662D91"/>
				<stop  offset="1" style="stop-color:#1B75BC"/>
			</linearGradient>
			<path class="st7" d="M450.8,406.9c-3.2,6.7-5,14.2-5,22.2v7.6h-146c-8.2,0-14.9-6.7-14.9-14.9v0c0-8.2,6.7-14.9,14.9-14.9H450.8z
				"/>
		</g>
	</g>
	<linearGradient id="SVGID_8_" gradientUnits="userSpaceOnUse" x1="664.0558" y1="406.3671" x2="664.9534" y2="537.0249">
		<stop  offset="0" style="stop-color:#231F20;stop-opacity:0.5"/>
		<stop  offset="1" style="stop-color:#1B75BC;stop-opacity:0"/>
	</linearGradient>
	<rect x="652.5" y="447" class="st8" width="23.8" height="29.7"/>
	<linearGradient id="SVGID_9_" gradientUnits="userSpaceOnUse" x1="666.4115" y1="405.9948" x2="666.668" y2="502.0327">
		<stop  offset="0" style="stop-color:#231F20;stop-opacity:0.5"/>
		<stop  offset="1" style="stop-color:#1B75BC;stop-opacity:0"/>
	</linearGradient>
	<path class="st9" d="M652.5,429v7.6h23.8V429c0-7.7,1.4-15.2,4-22.2c0,0,0,0,0,0h-23.9C653.9,413.8,652.5,421.3,652.5,429z"/>
</g>
<g>
	<path class="st19" d="M674.1,692.3c0,1.6-0.3,3-0.8,4.3c-0.5,1.3-1.2,2.3-2.1,3.2s-1.9,1.5-3.1,2c-1.2,0.5-2.4,0.7-3.7,0.7
		c-1.3,0-2.5-0.2-3.7-0.7c-1.2-0.5-2.2-1.1-3.1-2c-0.9-0.9-1.6-2-2.1-3.2c-0.5-1.3-0.8-2.7-0.8-4.3c0-1.6,0.3-3,0.8-4.3
		c0.5-1.3,1.2-2.3,2.1-3.2c0.9-0.9,1.9-1.5,3.1-2c1.2-0.5,2.4-0.7,3.7-0.7c1.3,0,2.5,0.2,3.7,0.7c1.2,0.5,2.2,1.1,3.1,2
		s1.6,2,2.1,3.2C673.8,689.3,674.1,690.7,674.1,692.3z M672,692.3c0-1.2-0.2-2.4-0.6-3.4c-0.4-1-0.9-1.9-1.6-2.6
		c-0.7-0.7-1.5-1.3-2.4-1.7c-0.9-0.4-2-0.6-3.1-0.6c-1.1,0-2.1,0.2-3.1,0.6c-0.9,0.4-1.7,1-2.4,1.7c-0.7,0.7-1.2,1.6-1.6,2.6
		c-0.4,1-0.6,2.2-0.6,3.4s0.2,2.4,0.6,3.4c0.4,1,0.9,1.9,1.6,2.6c0.7,0.7,1.5,1.3,2.4,1.7c0.9,0.4,2,0.6,3.1,0.6
		c1.1,0,2.1-0.2,3.1-0.6c0.9-0.4,1.7-1,2.4-1.7c0.7-0.7,1.2-1.6,1.6-2.6C671.9,694.7,672,693.6,672,692.3z M667.2,698
		c-0.4-0.8-0.9-1.7-1.5-2.4c-0.5-0.8-1-1.4-1.4-1.8h-1.9v4.2h-2v-11c0.5-0.1,1-0.2,1.6-0.3c0.6-0.1,1.1-0.1,1.6-0.1
		c1.6,0,2.9,0.3,3.7,0.9c0.8,0.6,1.3,1.5,1.3,2.7c0,0.7-0.2,1.3-0.6,1.8c-0.4,0.5-0.9,0.9-1.6,1.2c0.2,0.2,0.4,0.5,0.7,0.8
		c0.2,0.3,0.5,0.7,0.8,1.1c0.3,0.4,0.5,0.8,0.8,1.3c0.3,0.5,0.5,0.9,0.7,1.4H667.2z M662.5,692.1h1.1c0.8,0,1.6-0.1,2.1-0.4
		c0.6-0.2,0.8-0.7,0.8-1.5c0-0.7-0.3-1.2-0.8-1.5c-0.5-0.3-1.2-0.4-1.9-0.4c-0.2,0-0.4,0-0.7,0s-0.4,0-0.7,0V692.1z"/>
</g>
</svg>
