<?xml version="1.0" encoding="UTF-8"?>
<svg width="448px" height="264px" viewBox="0 0 448 264" version="1.1" xmlns="http://www.w3.org/2000/svg" xmlns:xlink="http://www.w3.org/1999/xlink">
    <!-- Generator: Sketch 55.2 (78181) - https://sketchapp.com -->
    <title>Group 3</title>
    <desc>Created with Sketch.</desc>
    <defs>
        <linearGradient x1="41.3738609%" y1="103.379023%" x2="58.0922567%" y2="1.20749186%" id="linearGradient-1">
            <stop stop-color="#662D91" offset="0%"></stop>
            <stop stop-color="#1B75BC" offset="100%"></stop>
        </linearGradient>
        <linearGradient x1="39.566139%" y1="114.311343%" x2="56.306339%" y2="12.0731421%" id="linearGradient-2">
            <stop stop-color="#662D91" offset="0%"></stop>
            <stop stop-color="#1B75BC" offset="100%"></stop>
        </linearGradient>
        <linearGradient x1="-123.053423%" y1="94.2454479%" x2="64.2291667%" y2="45.6160574%" id="linearGradient-3">
            <stop stop-color="#662D91" offset="0%"></stop>
            <stop stop-color="#1B75BC" offset="100%"></stop>
        </linearGradient>
        <linearGradient x1="-135.946577%" y1="97.9424603%" x2="51.3360119%" y2="49.3210255%" id="linearGradient-4">
            <stop stop-color="#662D91" offset="0%"></stop>
            <stop stop-color="#1B75BC" offset="100%"></stop>
        </linearGradient>
        <linearGradient x1="43.1456081%" y1="92.4503911%" x2="59.8857948%" y2="-9.78774446%" id="linearGradient-5">
            <stop stop-color="#662D91" offset="0%"></stop>
            <stop stop-color="#1B75BC" offset="100%"></stop>
        </linearGradient>
        <linearGradient x1="-13.083004%" y1="65.171792%" x2="152.732411%" y2="26.7856807%" id="linearGradient-6">
            <stop stop-color="#662D91" offset="0%"></stop>
            <stop stop-color="#1B75BC" offset="100%"></stop>
        </linearGradient>
        <linearGradient x1="-24.3573436%" y1="66.874031%" x2="136.375607%" y2="30.8050273%" id="linearGradient-7">
            <stop stop-color="#662D91" offset="0%"></stop>
            <stop stop-color="#1B75BC" offset="100%"></stop>
        </linearGradient>
        <linearGradient x1="48.7985102%" y1="-136.795714%" x2="51.2401173%" y2="303.606429%" id="linearGradient-8">
            <stop stop-color="#231F20" stop-opacity="0.5" offset="0%"></stop>
            <stop stop-color="#1B75BC" stop-opacity="0" offset="100%"></stop>
        </linearGradient>
        <linearGradient x1="49.6848163%" y1="-3.05142857%" x2="50.4997143%" y2="320.66%" id="linearGradient-9">
            <stop stop-color="#231F20" stop-opacity="0.5" offset="0%"></stop>
            <stop stop-color="#1B75BC" stop-opacity="0" offset="100%"></stop>
        </linearGradient>
    </defs>
    <g id="Page-1" stroke="none" stroke-width="1" fill="none" fill-rule="evenodd">
        <g id="logo" fill-rule="nonzero">
            <g id="Group-3">
                <g id="Group-2" transform="translate(88.000000, 0.000000)">
                    <path d="M142.2,1.6 C135.2,7.2 131,15.7 131,24.9 L131,154 L110.9,154 L110.9,24.9 C110.9,11.5 121.8,0.5 135.3,0.5 C137.7,0.6 140,0.9 142.2,1.6 L142.2,1.6 Z" id="Path" fill="url(#linearGradient-1)"></path>
                    <path d="M176.6,1.6 C172.4,5 169.2,9.4 167.3,14.5 C166.1,17.8 165.4,21.3 165.4,25 L165.4,154 L145.3,154 L145.3,25 C145.3,11.6 156.2,0.6 169.7,0.6 C172,0.6 174.3,0.9 176.6,1.6 Z" id="Path" fill="url(#linearGradient-2)"></path>
                    <path d="M241.3,40.4 C241.3,36.5 238.2,33.4 234.3,33.4 L174.1,33.4 L174.1,47.4 L234.3,47.4 C238.2,47.5 241.3,44.3 241.3,40.4 Z" id="Path" fill="url(#linearGradient-3)"></path>
                    <path d="M174.1,28.5 L234.3,28.5 C238.2,28.5 241.3,25.4 241.3,21.5 C241.3,17.6 238.2,14.5 234.3,14.5 L176,14.5 C174.8,17.8 174.1,21.3 174.1,25 L174.1,28.5 Z" id="Path" fill="url(#linearGradient-4)"></path>
                    <path d="M107.9,1.6 C100.9,7.2 96.7,15.7 96.7,24.9 L96.7,154 L76.6,154 L76.6,25 C76.6,21.3 77.4,17.7 79,14.5 C82.9,6.3 91.3,0.6 101,0.6 C103.3,0.6 105.6,0.9 107.9,1.6 L107.9,1.6 Z" id="Path" fill="url(#linearGradient-5)"></path>
                    <path d="M76.6,33.4 L76.6,47.4 L7.7,47.4 C3.8,47.4 0.7,44.3 0.7,40.4 C0.7,38.5 1.5,36.7 2.8,35.4 C4.1,34.1 5.8,33.3 7.8,33.3 L76.6,33.3 L76.6,33.4 Z" id="Path" fill="url(#linearGradient-6)"></path>
                    <path d="M78.9,14.5 C77.4,17.7 76.5,21.2 76.5,25 L76.5,28.6 L7.6,28.6 C3.7,28.6 0.6,25.5 0.6,21.6 C0.6,17.7 3.7,14.6 7.6,14.6 L78.9,14.6 L78.9,14.5 Z" id="Path" fill="url(#linearGradient-7)"></path>
                    <polygon id="Path" fill="url(#linearGradient-8)" points="174.1 33.4 185.4 33.4 185.4 47.4 174.1 47.4"></polygon>
                    <path d="M174.1,24.9 L174.1,28.5 L185.4,28.5 L185.4,25 C185.4,21.4 186.1,17.8 187.3,14.5 L176,14.5 C174.8,17.8 174.1,21.3 174.1,24.9 Z" id="Path" fill="url(#linearGradient-9)"></path>
                </g>
                <g id="Group" transform="translate(0.000000, 200.000000)" fill="#282455">
                    <polygon id="Path" points="45.9 6.8 45.9 17.4 29.3 17.4 29.3 61.9 16.9 61.9 16.9 17.4 0.3 17.4 0.3 6.8"></polygon>
                    <path d="M86.2,40.9 C86.2,44.2 85.7,47.2 84.8,49.9 C83.8,52.6 82.5,55 80.7,56.9 C78.9,58.8 76.7,60.3 74.2,61.4 C71.7,62.5 68.9,63 65.7,63 C62.6,63 59.8,62.5 57.3,61.4 C54.8,60.3 52.6,58.8 50.8,56.9 C49,55 47.6,52.6 46.6,49.9 C45.6,47.2 45.1,44.2 45.1,40.9 C45.1,37.6 45.6,34.6 46.6,31.9 C47.6,29.2 49.1,26.9 50.9,25 C52.7,23.1 54.9,21.6 57.4,20.6 C59.9,19.5 62.7,19 65.6,19 C68.6,19 71.4,19.5 73.9,20.6 C76.4,21.7 78.6,23.1 80.4,25 C82.2,26.9 83.6,29.2 84.6,31.9 C85.7,34.6 86.2,37.6 86.2,40.9 L86.2,40.9 Z M74.1,40.9 C74.1,37.2 73.4,34.4 71.9,32.3 C70.4,30.2 68.4,29.2 65.7,29.2 C63,29.2 60.9,30.2 59.4,32.3 C57.9,34.4 57.2,37.3 57.2,40.9 C57.2,44.5 57.9,47.5 59.4,49.6 C60.9,51.7 63,52.8 65.7,52.8 C68.4,52.8 70.5,51.7 71.9,49.6 C73.4,47.4 74.1,44.5 74.1,40.9 Z" id="Shape"></path>
                    <path d="M119.8,37.9 C118.7,41.9 117.6,45.9 116.4,49.9 C115.2,53.9 113.9,57.9 112.6,61.9 L103.4,61.9 C102.4,59.7 101.4,57 100.3,54 C99.2,50.9 98,47.6 96.8,43.9 C95.6,40.3 94.4,36.4 93.1,32.4 C91.9,28.3 90.6,24.3 89.5,20.1 L102,20.1 C102.4,22 102.9,24.1 103.4,26.3 C103.9,28.6 104.4,30.9 105,33.3 C105.6,35.7 106.1,38.1 106.8,40.5 C107.4,42.9 108,45.2 108.7,47.5 C109.4,45.2 110.1,42.8 110.7,40.3 C111.4,37.9 112,35.5 112.6,33.1 C113.2,30.7 113.8,28.5 114.3,26.3 C114.9,24.1 115.3,22 115.8,20.1 L124.4,20.1 C124.8,22 125.3,24.1 125.8,26.3 C126.3,28.5 126.9,30.8 127.5,33.1 C128.1,35.5 128.7,37.9 129.3,40.3 C129.9,42.7 130.6,45.1 131.3,47.5 C131.9,45.3 132.6,43 133.2,40.5 C133.8,38.1 134.4,35.7 135,33.3 C135.6,30.9 136.1,28.6 136.6,26.3 C137.1,24 137.6,22 138,20.1 L150.3,20.1 C149.1,24.2 147.9,28.3 146.7,32.4 C145.5,36.5 144.2,40.3 143,43.9 C141.8,47.5 140.6,50.9 139.5,54 C138.4,57.1 137.3,59.7 136.4,61.9 L127.2,61.9 C125.9,57.9 124.6,53.9 123.3,49.9 C122,45.9 120.9,41.9 119.8,37.9 L119.8,37.9 Z" id="Path"></path>
                    <path d="M153.7,41.3 C153.7,37.6 154.3,34.3 155.4,31.6 C156.5,28.8 158,26.5 159.9,24.6 C161.8,22.7 163.9,21.3 166.3,20.4 C168.7,19.4 171.2,19 173.7,19 C179.6,19 184.3,20.8 187.8,24.4 C191.2,28 193,33.4 193,40.4 C193,41.1 193,41.8 192.9,42.7 C192.8,43.5 192.8,44.2 192.7,44.9 L165.8,44.9 C166.1,47.3 167.2,49.3 169.2,50.7 C171.2,52.1 173.9,52.8 177.3,52.8 C179.5,52.8 181.6,52.6 183.7,52.2 C185.8,51.8 187.5,51.3 188.8,50.7 L190.4,60.3 C189.8,60.6 188.9,60.9 187.9,61.3 C186.8,61.6 185.7,61.9 184.4,62.1 C183.1,62.3 181.7,62.5 180.2,62.7 C178.7,62.9 177.2,62.9 175.8,62.9 C172,62.9 168.8,62.3 166,61.2 C163.2,60.1 160.9,58.6 159.1,56.6 C157.3,54.7 155.9,52.4 155,49.7 C154.1,47.2 153.7,44.4 153.7,41.3 L153.7,41.3 Z M181.5,36.7 C181.4,35.7 181.3,34.7 181,33.8 C180.7,32.8 180.3,32 179.6,31.3 C179,30.6 178.2,29.9 177.3,29.5 C176.4,29 175.2,28.8 173.8,28.8 C172.5,28.8 171.3,29 170.4,29.5 C169.4,30 168.7,30.5 168,31.3 C167.4,32 166.9,32.9 166.5,33.9 C166.2,34.9 165.9,35.9 165.7,36.9 L181.5,36.9 L181.5,36.7 Z" id="Shape"></path>
                    <path d="M218.8,62.7 C215.4,62.6 212.6,62.3 210.4,61.6 C208.3,60.9 206.6,59.9 205.3,58.7 C204.1,57.5 203.2,55.9 202.8,54.2 C202.3,52.4 202.1,50.4 202.1,48.2 L202.1,2.2 L213.9,0.3 L213.9,45.8 C213.9,46.9 214,47.8 214.1,48.7 C214.3,49.5 214.6,50.3 215,50.8 C215.4,51.4 216.1,51.9 216.9,52.2 C217.7,52.6 218.9,52.8 220.3,52.9 L218.8,62.7 Z" id="Path"></path>
                    <path d="M226.8,9.7 L238.6,7.8 L238.6,20.1 L252.8,20.1 L252.8,30 L238.6,30 L238.6,44.7 C238.6,47.2 239,49.2 239.9,50.7 C240.8,52.2 242.5,52.9 245.2,52.9 C246.5,52.9 247.8,52.8 249.1,52.5 C250.5,52.3 251.7,51.9 252.8,51.5 L254.5,60.7 C253.1,61.3 251.5,61.8 249.7,62.2 C247.9,62.6 245.8,62.8 243.3,62.8 C240.1,62.8 237.4,62.4 235.3,61.5 C233.2,60.6 231.5,59.4 230.2,57.8 C228.9,56.2 228,54.3 227.5,52.1 C227,49.9 226.7,47.4 226.7,44.7 L226.7,9.7 L226.8,9.7 Z" id="Path"></path>
                    <path d="M287.7,30.6 C286.6,30.3 285.4,30.1 284,29.8 C282.6,29.5 281,29.4 279.4,29.4 C278.7,29.4 277.8,29.5 276.7,29.6 C275.7,29.7 274.9,29.9 274.4,30 L274.4,61.9 L262.6,61.9 L262.6,22.3 C264.7,21.6 267.2,20.9 270.1,20.2 C273,19.5 276.2,19.2 279.8,19.2 C280.4,19.2 281.2,19.2 282.1,19.3 C283,19.4 283.9,19.5 284.8,19.6 C285.7,19.7 286.6,19.9 287.5,20.1 C288.4,20.3 289.2,20.5 289.8,20.8 L287.7,30.6 Z" id="Path"></path>
                    <path d="M310.2,19 C313.7,19 316.6,19.4 318.9,20.2 C321.2,21 323.1,22.1 324.5,23.6 C325.9,25.1 326.9,26.9 327.5,29 C328.1,31.1 328.4,33.5 328.4,36.1 L328.4,60.7 C326.7,61.1 324.3,61.5 321.3,62 C318.3,62.5 314.6,62.8 310.3,62.8 C307.6,62.8 305.1,62.6 303,62.1 C300.8,61.6 298.9,60.8 297.3,59.8 C295.7,58.7 294.5,57.3 293.6,55.5 C292.8,53.8 292.3,51.6 292.3,49.1 C292.3,46.7 292.8,44.6 293.8,42.9 C294.8,41.2 296.1,39.9 297.7,38.8 C299.3,37.8 301.2,37.1 303.3,36.6 C305.4,36.2 307.6,35.9 309.9,35.9 C311.4,35.9 312.8,36 314,36.1 C315.2,36.2 316.2,36.4 316.9,36.6 L316.9,35.5 C316.9,33.5 316.3,31.9 315.1,30.7 C313.9,29.5 311.8,28.9 308.7,28.9 C306.7,28.9 304.7,29 302.7,29.3 C300.7,29.6 299,30 297.6,30.5 L296.1,21 C296.8,20.8 297.6,20.6 298.7,20.3 C299.7,20.1 300.9,19.9 302.1,19.7 C303.3,19.5 304.6,19.4 306,19.2 C307.5,19 308.8,19 310.2,19 L310.2,19 Z M311.2,53.6 C312.4,53.6 313.5,53.6 314.5,53.5 C315.6,53.4 316.4,53.4 317,53.3 L317,44.3 C316.5,44.2 315.8,44.1 314.9,44 C313.9,43.9 313.1,43.8 312.3,43.8 C311.2,43.8 310.1,43.9 309.2,44 C308.2,44.1 307.4,44.4 306.6,44.8 C305.9,45.2 305.3,45.7 304.9,46.3 C304.5,46.9 304.3,47.7 304.3,48.7 C304.3,50.6 304.9,51.8 306.2,52.6 C307.3,53.2 309,53.6 311.2,53.6 L311.2,53.6 Z" id="Shape"></path>
                    <path d="M337.2,41 C337.2,38 337.7,35.1 338.7,32.5 C339.7,29.8 341.1,27.5 343,25.5 C344.9,23.5 347.1,21.9 349.8,20.8 C352.4,19.6 355.5,19.1 358.9,19.1 C361.1,19.1 363.2,19.3 365,19.7 C366.9,20.1 368.7,20.7 370.4,21.4 L367.9,30.9 C366.8,30.5 365.6,30.1 364.2,29.8 C362.9,29.5 361.4,29.3 359.8,29.3 C356.3,29.3 353.7,30.4 352,32.6 C350.3,34.8 349.4,37.6 349.4,41.2 C349.4,45 350.2,47.9 351.8,49.9 C353.4,52 356.2,53 360.3,53 C361.7,53 363.3,52.9 364.9,52.6 C366.5,52.3 368.1,51.9 369.4,51.3 L371.1,61 C369.7,61.6 368,62.1 365.9,62.5 C363.8,62.9 361.6,63.1 359.1,63.1 C355.3,63.1 352,62.5 349.2,61.4 C346.4,60.3 344.2,58.7 342.4,56.8 C340.6,54.8 339.3,52.5 338.5,49.8 C337.6,47 337.2,44.1 337.2,41 L337.2,41 Z" id="Path"></path>
                    <path d="M390.7,35.1 C391.9,33.8 393.1,32.5 394.3,31.2 C395.5,29.8 396.7,28.5 397.9,27.1 C399.1,25.7 400.2,24.5 401.2,23.3 C402.2,22.1 403.1,21 403.9,20.1 L418,20.1 C415.2,23.3 412.5,26.4 409.8,29.3 C407.1,32.2 404.2,35.3 401,38.4 C402.6,39.8 404.2,41.5 405.9,43.5 C407.6,45.5 409.2,47.5 410.8,49.7 C412.4,51.8 413.8,53.9 415.2,56.1 C416.5,58.2 417.6,60.2 418.5,61.9 L404.9,61.9 C404.1,60.5 403.1,59 402,57.3 C400.9,55.6 399.8,54 398.6,52.3 C397.4,50.6 396.1,49 394.8,47.5 C393.5,46 392.1,44.7 390.8,43.6 L390.8,61.9 L379,61.9 L379,2.1 L390.8,0.2 L390.8,35.1 L390.7,35.1 Z" id="Path"></path>
                    <path d="M447.6,13.2 C447.6,14.6 447.4,15.9 446.9,17 C446.4,18.1 445.8,19.1 445,19.9 C444.2,20.7 443.3,21.3 442.3,21.7 C441.3,22.1 440.2,22.3 439,22.3 C437.9,22.3 436.8,22.1 435.7,21.7 C434.7,21.3 433.7,20.7 433,19.9 C432.2,19.1 431.6,18.2 431.1,17 C430.6,15.9 430.4,14.6 430.4,13.2 C430.4,11.8 430.6,10.5 431.1,9.4 C431.6,8.3 432.2,7.3 433,6.5 C433.8,5.7 434.7,5.1 435.7,4.7 C436.7,4.3 437.8,4.1 439,4.1 C440.1,4.1 441.2,4.3 442.3,4.7 C443.3,5.1 444.3,5.7 445,6.5 C445.8,7.3 446.4,8.2 446.9,9.4 C447.4,10.5 447.6,11.8 447.6,13.2 Z M445.8,13.2 C445.8,12.1 445.6,11.1 445.3,10.2 C445,9.3 444.5,8.5 443.9,7.8 C443.3,7.1 442.6,6.6 441.8,6.3 C441,5.9 440.1,5.8 439.1,5.8 C438.1,5.8 437.2,6 436.4,6.3 C435.6,6.7 434.9,7.2 434.3,7.8 C433.7,8.5 433.2,9.2 432.9,10.2 C432.6,11.1 432.4,12.1 432.4,13.2 C432.4,14.3 432.6,15.3 432.9,16.2 C433.2,17.1 433.7,17.9 434.3,18.6 C434.9,19.3 435.6,19.8 436.4,20.1 C437.2,20.5 438.1,20.6 439.1,20.6 C440.1,20.6 441,20.4 441.8,20.1 C442.6,19.7 443.3,19.2 443.9,18.6 C444.5,17.9 445,17.2 445.3,16.2 C445.6,15.3 445.8,14.3 445.8,13.2 Z M441.5,18.2 C441.1,17.4 440.7,16.7 440.2,16 C439.7,15.3 439.3,14.8 439,14.4 L437.3,14.4 L437.3,18.2 L435.5,18.2 L435.5,8.4 C436,8.3 436.4,8.2 436.9,8.2 C437.4,8.1 437.9,8.1 438.3,8.1 C439.7,8.1 440.8,8.4 441.6,8.9 C442.4,9.4 442.7,10.3 442.7,11.3 C442.7,11.9 442.5,12.5 442.2,12.9 C441.9,13.4 441.4,13.7 440.8,14 C441,14.2 441.2,14.5 441.4,14.8 C441.6,15.1 441.8,15.4 442.1,15.8 C442.3,16.2 442.6,16.6 442.8,17 C443,17.4 443.2,17.8 443.4,18.2 L441.5,18.2 Z M437.2,13 L438.2,13 C439,13 439.6,12.9 440.1,12.7 C440.6,12.5 440.9,12.1 440.9,11.4 C440.9,10.8 440.7,10.3 440.2,10.1 C439.7,9.9 439.1,9.7 438.5,9.7 C438.3,9.7 438.1,9.7 437.9,9.7 C437.7,9.7 437.5,9.7 437.3,9.7 L437.3,13 L437.2,13 Z" id="Shape" opacity="0.5"></path>
                </g>
            </g>
        </g>
    </g>
</svg>