<?xml version="1.0" encoding="utf-8"?>
<!-- Generator: Adobe Illustrator 20.0.0, SVG Export Plug-In . SVG Version: 6.00 Build 0)  -->
<svg version="1.1" id="Layer_1" xmlns="http://www.w3.org/2000/svg" xmlns:xlink="http://www.w3.org/1999/xlink" x="0px" y="0px"
	 viewBox="0 0 1080 1080" style="enable-background:new 0 0 1080 1080;" xml:space="preserve">
<style type="text/css">
	.st0{fill:#FFFFFF;}
	.st1{fill:url(#SVGID_1_);}
	.st2{fill:url(#SVGID_2_);}
	.st3{fill:url(#SVGID_3_);}
	.st4{fill:url(#SVGID_4_);}
	.st5{fill:url(#SVGID_5_);}
	.st6{fill:url(#SVGID_6_);}
	.st7{fill:url(#SVGID_7_);}
	.st8{fill:url(#SVGID_8_);}
	.st9{fill:url(#SVGID_9_);}
	.st10{fill:url(#SVGID_10_);}
	.st11{fill:url(#SVGID_11_);}
	.st12{fill:url(#SVGID_12_);}
	.st13{fill:url(#SVGID_13_);}
	.st14{fill:url(#SVGID_14_);}
	.st15{fill:url(#SVGID_15_);}
	.st16{fill:url(#SVGID_16_);}
	.st17{fill:url(#SVGID_17_);}
	.st18{fill:url(#SVGID_18_);}
	.st19{fill:#282455;}
	.st20{opacity:0.5;}
	.st21{fill:url(#SVGID_19_);}
	.st22{fill:url(#SVGID_20_);}
	.st23{fill:url(#SVGID_21_);}
	.st24{fill:url(#SVGID_22_);}
	.st25{fill:url(#SVGID_23_);}
	.st26{fill:url(#SVGID_24_);}
	.st27{fill:url(#SVGID_25_);}
	.st28{fill:url(#SVGID_26_);}
	.st29{fill:url(#SVGID_27_);}
	.st30{fill:url(#SVGID_28_);}
	.st31{fill:url(#SVGID_29_);}
	.st32{fill:url(#SVGID_30_);}
	.st33{fill:url(#SVGID_31_);}
	.st34{fill:url(#SVGID_32_);}
	.st35{fill:url(#SVGID_33_);}
	.st36{fill:url(#SVGID_34_);}
	.st37{fill:url(#SVGID_35_);}
	.st38{fill:url(#SVGID_36_);}
	.st39{fill:#231F46;}
	.st40{fill:url(#SVGID_37_);}
	.st41{fill:url(#SVGID_38_);}
	.st42{fill:url(#SVGID_39_);}
	.st43{fill:url(#SVGID_40_);}
	.st44{fill:url(#SVGID_41_);}
	.st45{fill:url(#SVGID_42_);}
	.st46{fill:url(#SVGID_43_);}
	.st47{fill:url(#SVGID_44_);}
	.st48{fill:url(#SVGID_45_);}
	.st49{fill:#F1F2F2;}
	.st50{fill:#BCBEC0;}
	.st51{fill:url(#SVGID_46_);}
	.st52{fill:url(#SVGID_47_);}
	.st53{fill:url(#SVGID_48_);}
	.st54{fill:url(#SVGID_49_);}
	.st55{fill:url(#SVGID_50_);}
	.st56{fill:url(#SVGID_51_);}
	.st57{fill:url(#SVGID_52_);}
	.st58{fill:url(#SVGID_53_);}
	.st59{fill:url(#SVGID_54_);}
	.st60{fill:url(#SVGID_55_);}
	.st61{fill:url(#SVGID_56_);}
	.st62{fill:url(#SVGID_57_);}
	.st63{fill:url(#SVGID_58_);}
	.st64{fill:url(#SVGID_59_);}
	.st65{fill:url(#SVGID_60_);}
	.st66{fill:url(#SVGID_61_);}
	.st67{fill:url(#SVGID_62_);}
	.st68{fill:url(#SVGID_63_);}
	.st69{fill:url(#SVGID_64_);}
	.st70{fill:url(#SVGID_65_);}
	.st71{fill:url(#SVGID_66_);}
	.st72{fill:url(#SVGID_67_);}
	.st73{fill:url(#SVGID_68_);}
	.st74{fill:url(#SVGID_69_);}
	.st75{fill:url(#SVGID_70_);}
	.st76{fill:url(#SVGID_71_);}
	.st77{fill:url(#SVGID_72_);}
	.st78{fill:url(#SVGID_73_);}
	.st79{opacity:0.7;}
	.st80{opacity:0.8;fill:#FFFFFF;}
	.st81{opacity:0.5;fill:#231F46;}
	.st82{opacity:0.5;fill:none;stroke:#FFFFFF;stroke-width:0.5;stroke-miterlimit:10;}
</style>
<rect class="st0" width="1080" height="1080"/>
<g>
	<linearGradient id="SVGID_1_" gradientUnits="userSpaceOnUse" x1="480.6135" y1="559.1868" x2="606.4675" y2="402.3535">
		<stop  offset="0" style="stop-color:#662D91"/>
		<stop  offset="1" style="stop-color:#1B75BC"/>
	</linearGradient>
	<path class="st1" d="M561.2,401.6c-7,5.6-11.2,14.1-11.2,23.3V554h-20.1V424.9c0-13.4,10.9-24.4,24.4-24.4
		C556.7,400.6,559,400.9,561.2,401.6z"/>
	<linearGradient id="SVGID_2_" gradientUnits="userSpaceOnUse" x1="501.5075" y1="575.9536" x2="627.3615" y2="419.1202">
		<stop  offset="0" style="stop-color:#662D91"/>
		<stop  offset="1" style="stop-color:#1B75BC"/>
	</linearGradient>
	<path class="st2" d="M595.6,401.6c-4.2,3.4-7.4,7.8-9.3,12.9c-1.2,3.3-1.9,6.8-1.9,10.5V554h-20.1V425c0-13.4,10.9-24.4,24.4-24.4
		C591,400.6,593.3,400.9,595.6,401.6z"/>
	<g>
		<linearGradient id="SVGID_3_" gradientUnits="userSpaceOnUse" x1="510.4081" y1="583.096" x2="636.262" y2="426.2626">
			<stop  offset="0" style="stop-color:#662D91"/>
			<stop  offset="1" style="stop-color:#1B75BC"/>
		</linearGradient>
		<path class="st3" d="M660.3,440.4L660.3,440.4c0-3.9-3.1-7-7-7h-60.2v14h60.2C657.2,447.5,660.3,444.3,660.3,440.4z"/>
		<linearGradient id="SVGID_4_" gradientUnits="userSpaceOnUse" x1="501.7439" y1="576.1432" x2="627.5978" y2="419.3099">
			<stop  offset="0" style="stop-color:#662D91"/>
			<stop  offset="1" style="stop-color:#1B75BC"/>
		</linearGradient>
		<path class="st4" d="M593.1,428.5h60.2c3.9,0,7-3.1,7-7v0c0-3.9-3.1-7-7-7H595c-1.2,3.3-1.9,6.8-1.9,10.5V428.5z"/>
	</g>
	<linearGradient id="SVGID_5_" gradientUnits="userSpaceOnUse" x1="459.7182" y1="542.4189" x2="585.5721" y2="385.5856">
		<stop  offset="0" style="stop-color:#662D91"/>
		<stop  offset="1" style="stop-color:#1B75BC"/>
	</linearGradient>
	<path class="st5" d="M526.9,401.6c-7,5.6-11.2,14.1-11.2,23.3V554h-20.1V425c0-3.7,0.8-7.3,2.4-10.5c3.9-8.2,12.3-13.9,22-13.9
		C522.3,400.6,524.6,400.9,526.9,401.6z"/>
	<g>
		<linearGradient id="SVGID_6_" gradientUnits="userSpaceOnUse" x1="409.77" y1="502.3371" x2="535.6239" y2="345.5037">
			<stop  offset="0" style="stop-color:#662D91"/>
			<stop  offset="1" style="stop-color:#1B75BC"/>
		</linearGradient>
		<path class="st6" d="M495.6,433.4v14h-68.9c-3.9,0-7-3.1-7-7c0-1.9,0.8-3.7,2.1-5c1.3-1.3,3-2.1,5-2.1H495.6z"/>
		<linearGradient id="SVGID_7_" gradientUnits="userSpaceOnUse" x1="400.5282" y1="494.9208" x2="526.3821" y2="338.0874">
			<stop  offset="0" style="stop-color:#662D91"/>
			<stop  offset="1" style="stop-color:#1B75BC"/>
		</linearGradient>
		<path class="st7" d="M497.9,414.5c-1.5,3.2-2.4,6.7-2.4,10.5v3.6h-68.9c-3.9,0-7-3.1-7-7v0c0-3.9,3.1-7,7-7H497.9z"/>
	</g>
</g>
<linearGradient id="SVGID_8_" gradientUnits="userSpaceOnUse" x1="598.5416" y1="414.2486" x2="598.9651" y2="475.9049">
	<stop  offset="0" style="stop-color:#231F20;stop-opacity:0.5"/>
	<stop  offset="1" style="stop-color:#1B75BC;stop-opacity:0"/>
</linearGradient>
<rect x="593.1" y="433.4" class="st8" width="11.3" height="14"/>
<linearGradient id="SVGID_9_" gradientUnits="userSpaceOnUse" x1="599.6532" y1="414.0728" x2="599.7742" y2="459.3924">
	<stop  offset="0" style="stop-color:#231F20;stop-opacity:0.5"/>
	<stop  offset="1" style="stop-color:#1B75BC;stop-opacity:0"/>
</linearGradient>
<path class="st9" d="M593.1,424.9v3.6h11.3V425c0-3.6,0.7-7.2,1.9-10.5c0,0,0,0,0,0H595C593.8,417.8,593.1,421.3,593.1,424.9z"/>
<g>
	<path class="st19" d="M376.9,606.8v10.6h-16.6v44.5h-12.4v-44.5h-16.6v-10.6H376.9z"/>
	<path class="st19" d="M417.2,640.9c0,3.3-0.5,6.3-1.4,9c-1,2.7-2.3,5.1-4.1,7c-1.8,1.9-4,3.4-6.5,4.5c-2.5,1.1-5.3,1.6-8.5,1.6
		c-3.1,0-5.9-0.5-8.4-1.6c-2.5-1.1-4.7-2.6-6.5-4.5c-1.8-1.9-3.2-4.3-4.2-7c-1-2.7-1.5-5.7-1.5-9c0-3.3,0.5-6.3,1.5-9
		c1-2.7,2.5-5,4.3-6.9c1.8-1.9,4-3.4,6.5-4.4c2.5-1.1,5.3-1.6,8.2-1.6c3,0,5.8,0.5,8.3,1.6c2.5,1.1,4.7,2.5,6.5,4.4
		c1.8,1.9,3.2,4.2,4.2,6.9C416.7,634.6,417.2,637.6,417.2,640.9z M405.1,640.9c0-3.7-0.7-6.5-2.2-8.6c-1.5-2.1-3.5-3.1-6.2-3.1
		s-4.8,1-6.3,3.1c-1.5,2.1-2.2,5-2.2,8.6s0.7,6.6,2.2,8.7c1.5,2.1,3.6,3.2,6.3,3.2s4.8-1.1,6.2-3.2
		C404.4,647.4,405.1,644.5,405.1,640.9z"/>
	<path class="st19" d="M450.8,637.9c-1.1,4-2.2,8-3.4,12s-2.5,8-3.8,12h-9.2c-1-2.2-2-4.9-3.1-7.9c-1.1-3.1-2.3-6.4-3.5-10.1
		c-1.2-3.6-2.4-7.5-3.7-11.5c-1.2-4.1-2.5-8.1-3.6-12.3h12.5c0.4,1.9,0.9,4,1.4,6.2c0.5,2.3,1,4.6,1.6,7c0.6,2.4,1.1,4.8,1.8,7.2
		c0.6,2.4,1.2,4.7,1.9,7c0.7-2.3,1.4-4.7,2-7.2c0.7-2.4,1.3-4.8,1.9-7.2c0.6-2.4,1.2-4.6,1.7-6.8c0.6-2.2,1-4.3,1.5-6.2h8.6
		c0.4,1.9,0.9,4,1.4,6.2c0.5,2.2,1.1,4.5,1.7,6.8c0.6,2.4,1.2,4.8,1.8,7.2c0.6,2.4,1.3,4.8,2,7.2c0.6-2.2,1.3-4.5,1.9-7
		c0.6-2.4,1.2-4.8,1.8-7.2c0.6-2.4,1.1-4.7,1.6-7c0.5-2.3,1-4.3,1.4-6.2h12.3c-1.2,4.1-2.4,8.2-3.6,12.3s-2.5,7.9-3.7,11.5
		c-1.2,3.6-2.4,7-3.5,10.1c-1.1,3.1-2.2,5.7-3.1,7.9h-9.2c-1.3-4-2.6-8-3.9-12C453,645.9,451.9,641.9,450.8,637.9z"/>
	<path class="st19" d="M484.7,641.3c0-3.7,0.6-7,1.7-9.7c1.1-2.8,2.6-5.1,4.5-7c1.9-1.9,4-3.3,6.4-4.2c2.4-1,4.9-1.4,7.4-1.4
		c5.9,0,10.6,1.8,14.1,5.4c3.4,3.6,5.2,9,5.2,16c0,0.7,0,1.4-0.1,2.3c-0.1,0.8-0.1,1.5-0.2,2.2h-26.9c0.3,2.4,1.4,4.4,3.4,5.8
		c2,1.4,4.7,2.1,8.1,2.1c2.2,0,4.3-0.2,6.4-0.6c2.1-0.4,3.8-0.9,5.1-1.5l1.6,9.6c-0.6,0.3-1.5,0.6-2.5,1c-1.1,0.3-2.2,0.6-3.5,0.8
		c-1.3,0.2-2.7,0.4-4.2,0.6c-1.5,0.2-3,0.2-4.4,0.2c-3.8,0-7-0.6-9.8-1.7c-2.8-1.1-5.1-2.6-6.9-4.6c-1.8-1.9-3.2-4.2-4.1-6.9
		C485.1,647.2,484.7,644.4,484.7,641.3z M512.5,636.7c-0.1-1-0.2-2-0.5-2.9c-0.3-1-0.7-1.8-1.4-2.5c-0.6-0.7-1.4-1.4-2.3-1.8
		c-0.9-0.5-2.1-0.7-3.5-0.7c-1.3,0-2.5,0.2-3.4,0.7c-1,0.5-1.7,1-2.4,1.8c-0.6,0.7-1.1,1.6-1.5,2.6c-0.3,1-0.6,2-0.8,3H512.5z"/>
	<path class="st19" d="M549.8,662.7c-3.4-0.1-6.2-0.4-8.4-1.1c-2.1-0.7-3.8-1.7-5.1-2.9c-1.2-1.2-2.1-2.8-2.5-4.5
		c-0.5-1.8-0.7-3.8-0.7-6v-46l11.8-1.9v45.5c0,1.1,0.1,2,0.2,2.9c0.2,0.8,0.5,1.6,0.9,2.1c0.4,0.6,1.1,1.1,1.9,1.4
		c0.8,0.4,2,0.6,3.4,0.7L549.8,662.7z"/>
	<path class="st19" d="M557.8,609.7l11.8-1.9v12.3h14.2v9.9h-14.2v14.7c0,2.5,0.4,4.5,1.3,6c0.9,1.5,2.6,2.2,5.3,2.2
		c1.3,0,2.6-0.1,3.9-0.4c1.4-0.2,2.6-0.6,3.7-1l1.7,9.2c-1.4,0.6-3,1.1-4.8,1.5s-3.9,0.6-6.4,0.6c-3.2,0-5.9-0.4-8-1.3
		c-2.1-0.9-3.8-2.1-5.1-3.7c-1.3-1.6-2.2-3.5-2.7-5.7c-0.5-2.2-0.8-4.7-0.8-7.4V609.7z"/>
	<path class="st19" d="M618.7,630.6c-1.1-0.3-2.3-0.5-3.7-0.8c-1.4-0.3-3-0.4-4.6-0.4c-0.7,0-1.6,0.1-2.7,0.2
		c-1,0.1-1.8,0.3-2.3,0.4v31.9h-11.8v-39.6c2.1-0.7,4.6-1.4,7.5-2.1c2.9-0.7,6.1-1,9.7-1c0.6,0,1.4,0,2.3,0.1
		c0.9,0.1,1.8,0.2,2.7,0.3c0.9,0.1,1.8,0.3,2.7,0.5c0.9,0.2,1.7,0.4,2.3,0.7L618.7,630.6z"/>
	<path class="st19" d="M641.2,619c3.5,0,6.4,0.4,8.7,1.2c2.3,0.8,4.2,1.9,5.6,3.4c1.4,1.5,2.4,3.3,3,5.4c0.6,2.1,0.9,4.5,0.9,7.1
		v24.6c-1.7,0.4-4.1,0.8-7.1,1.3c-3,0.5-6.7,0.8-11,0.8c-2.7,0-5.2-0.2-7.3-0.7c-2.2-0.5-4.1-1.3-5.7-2.3c-1.6-1.1-2.8-2.5-3.7-4.3
		c-0.8-1.7-1.3-3.9-1.3-6.4c0-2.4,0.5-4.5,1.5-6.2c1-1.7,2.3-3,3.9-4.1c1.6-1,3.5-1.7,5.6-2.2c2.1-0.4,4.3-0.7,6.6-0.7
		c1.5,0,2.9,0.1,4.1,0.2c1.2,0.1,2.2,0.3,2.9,0.5v-1.1c0-2-0.6-3.6-1.8-4.8c-1.2-1.2-3.3-1.8-6.4-1.8c-2,0-4,0.1-6,0.4
		c-2,0.3-3.7,0.7-5.1,1.2l-1.5-9.5c0.7-0.2,1.5-0.4,2.6-0.7c1-0.2,2.2-0.4,3.4-0.6c1.2-0.2,2.5-0.3,3.9-0.5
		C638.5,619,639.8,619,641.2,619z M642.2,653.6c1.2,0,2.3,0,3.3-0.1c1.1-0.1,1.9-0.1,2.5-0.2v-9c-0.5-0.1-1.2-0.2-2.1-0.3
		c-1-0.1-1.8-0.2-2.6-0.2c-1.1,0-2.2,0.1-3.1,0.2c-1,0.1-1.8,0.4-2.6,0.8c-0.7,0.4-1.3,0.9-1.7,1.5c-0.4,0.6-0.6,1.4-0.6,2.4
		c0,1.9,0.6,3.1,1.9,3.9C638.3,653.2,640,653.6,642.2,653.6z"/>
	<path class="st19" d="M668.2,641c0-3,0.5-5.9,1.5-8.5c1-2.7,2.4-5,4.3-7c1.9-2,4.1-3.6,6.8-4.7c2.6-1.2,5.7-1.7,9.1-1.7
		c2.2,0,4.3,0.2,6.1,0.6c1.9,0.4,3.7,1,5.4,1.7l-2.5,9.5c-1.1-0.4-2.3-0.8-3.7-1.1c-1.3-0.3-2.8-0.5-4.4-0.5c-3.5,0-6.1,1.1-7.8,3.3
		c-1.7,2.2-2.6,5-2.6,8.6c0,3.8,0.8,6.7,2.4,8.7c1.6,2.1,4.4,3.1,8.5,3.1c1.4,0,3-0.1,4.6-0.4c1.6-0.3,3.2-0.7,4.5-1.3l1.7,9.7
		c-1.4,0.6-3.1,1.1-5.2,1.5c-2.1,0.4-4.3,0.6-6.8,0.6c-3.8,0-7.1-0.6-9.9-1.7c-2.8-1.1-5-2.7-6.8-4.6c-1.8-2-3.1-4.3-3.9-7
		C668.6,647,668.2,644.1,668.2,641z"/>
	<path class="st19" d="M721.7,635.1c1.2-1.3,2.4-2.6,3.6-3.9c1.2-1.4,2.4-2.7,3.6-4.1s2.3-2.6,3.3-3.8c1-1.2,1.9-2.3,2.7-3.2H749
		c-2.8,3.2-5.5,6.3-8.2,9.2c-2.7,2.9-5.6,6-8.8,9.1c1.6,1.4,3.2,3.1,4.9,5.1c1.7,2,3.3,4,4.9,6.2c1.6,2.1,3,4.2,4.4,6.4
		c1.3,2.1,2.4,4.1,3.3,5.8h-13.6c-0.8-1.4-1.8-2.9-2.9-4.6c-1.1-1.7-2.2-3.3-3.4-5c-1.2-1.7-2.5-3.3-3.8-4.8c-1.3-1.5-2.7-2.8-4-3.9
		v18.3h-11.8v-59.8l11.8-1.9V635.1z"/>
</g>
<g class="st20">
	<g>
		<path class="st19" d="M778.6,613.2c0,1.4-0.2,2.7-0.7,3.8c-0.5,1.1-1.1,2.1-1.9,2.9c-0.8,0.8-1.7,1.4-2.7,1.8
			c-1,0.4-2.1,0.6-3.3,0.6c-1.1,0-2.2-0.2-3.3-0.6c-1-0.4-2-1-2.7-1.8c-0.8-0.8-1.4-1.7-1.9-2.9c-0.5-1.1-0.7-2.4-0.7-3.8
			c0-1.4,0.2-2.7,0.7-3.8c0.5-1.1,1.1-2.1,1.9-2.9c0.8-0.8,1.7-1.4,2.7-1.8c1-0.4,2.1-0.6,3.3-0.6c1.1,0,2.2,0.2,3.3,0.6
			c1,0.4,2,1,2.7,1.8c0.8,0.8,1.4,1.7,1.9,2.9C778.4,610.5,778.6,611.8,778.6,613.2z M776.8,613.2c0-1.1-0.2-2.1-0.5-3
			c-0.3-0.9-0.8-1.7-1.4-2.4c-0.6-0.7-1.3-1.2-2.1-1.5c-0.8-0.4-1.7-0.5-2.7-0.5c-1,0-1.9,0.2-2.7,0.5c-0.8,0.4-1.5,0.9-2.1,1.5
			c-0.6,0.7-1.1,1.4-1.4,2.4c-0.3,0.9-0.5,1.9-0.5,3c0,1.1,0.2,2.1,0.5,3c0.3,0.9,0.8,1.7,1.4,2.4c0.6,0.7,1.3,1.2,2.1,1.5
			c0.8,0.4,1.7,0.5,2.7,0.5c1,0,1.9-0.2,2.7-0.5c0.8-0.4,1.5-0.9,2.1-1.5c0.6-0.7,1.1-1.4,1.4-2.4
			C776.6,615.3,776.8,614.3,776.8,613.2z M772.5,618.2c-0.4-0.8-0.8-1.5-1.3-2.2c-0.5-0.7-0.9-1.2-1.2-1.6h-1.7v3.8h-1.8v-9.8
			c0.5-0.1,0.9-0.2,1.4-0.2c0.5-0.1,1-0.1,1.4-0.1c1.4,0,2.5,0.3,3.3,0.8c0.8,0.5,1.1,1.4,1.1,2.4c0,0.6-0.2,1.2-0.5,1.6
			c-0.3,0.5-0.8,0.8-1.4,1.1c0.2,0.2,0.4,0.5,0.6,0.8c0.2,0.3,0.4,0.6,0.7,1c0.2,0.4,0.5,0.8,0.7,1.2c0.2,0.4,0.4,0.8,0.6,1.2H772.5
			z M768.2,613h1c0.8,0,1.4-0.1,1.9-0.3c0.5-0.2,0.8-0.6,0.8-1.3c0-0.6-0.2-1.1-0.7-1.3c-0.5-0.2-1.1-0.4-1.7-0.4
			c-0.2,0-0.4,0-0.6,0c-0.2,0-0.4,0-0.6,0V613z"/>
	</g>
</g>
</svg>
