<?xml version="1.0" encoding="UTF-8"?>
<svg width="242px" height="154px" viewBox="0 0 242 154" version="1.1" xmlns="http://www.w3.org/2000/svg" xmlns:xlink="http://www.w3.org/1999/xlink">
    <!-- Generator: Sketch 55.2 (78181) - https://sketchapp.com -->
    <title>Group</title>
    <desc>Created with Sketch.</desc>
    <defs>
        <linearGradient x1="41.373861%" y1="103.379023%" x2="58.092257%" y2="1.207492%" id="linearGradient-1">
            <stop stop-color="#662D91" offset="0%"></stop>
            <stop stop-color="#1B75BC" offset="100%"></stop>
        </linearGradient>
        <linearGradient x1="39.566139%" y1="114.311343%" x2="56.306339%" y2="12.073142%" id="linearGradient-2">
            <stop stop-color="#662D91" offset="0%"></stop>
            <stop stop-color="#1B75BC" offset="100%"></stop>
        </linearGradient>
        <linearGradient x1="-123.053423%" y1="94.245448%" x2="64.229167%" y2="45.616057%" id="linearGradient-3">
            <stop stop-color="#662D91" offset="0%"></stop>
            <stop stop-color="#1B75BC" offset="100%"></stop>
        </linearGradient>
        <linearGradient x1="-135.946577%" y1="97.94246%" x2="51.336012%" y2="49.321026%" id="linearGradient-4">
            <stop stop-color="#662D91" offset="0%"></stop>
            <stop stop-color="#1B75BC" offset="100%"></stop>
        </linearGradient>
        <linearGradient x1="43.145608%" y1="92.450391%" x2="59.885795%" y2="-9.787744%" id="linearGradient-5">
            <stop stop-color="#662D91" offset="0%"></stop>
            <stop stop-color="#1B75BC" offset="100%"></stop>
        </linearGradient>
        <linearGradient x1="-13.083004%" y1="65.171792%" x2="152.732411%" y2="26.785681%" id="linearGradient-6">
            <stop stop-color="#662D91" offset="0%"></stop>
            <stop stop-color="#1B75BC" offset="100%"></stop>
        </linearGradient>
        <linearGradient x1="-24.357344%" y1="66.874031%" x2="136.375607%" y2="30.805027%" id="linearGradient-7">
            <stop stop-color="#662D91" offset="0%"></stop>
            <stop stop-color="#1B75BC" offset="100%"></stop>
        </linearGradient>
        <linearGradient x1="48.79851%" y1="-136.795714%" x2="51.240117%" y2="303.606429%" id="linearGradient-8">
            <stop stop-color="#231F20" stop-opacity="0.5" offset="0%"></stop>
            <stop stop-color="#1B75BC" stop-opacity="0" offset="100%"></stop>
        </linearGradient>
        <linearGradient x1="49.684816%" y1="-3.051429%" x2="50.499714%" y2="320.66%" id="linearGradient-9">
            <stop stop-color="#231F20" stop-opacity="0.5" offset="0%"></stop>
            <stop stop-color="#1B75BC" stop-opacity="0" offset="100%"></stop>
        </linearGradient>
    </defs>
    <g id="Page-1" stroke="none" stroke-width="1" fill="none" fill-rule="evenodd">
        <g id="logo" transform="translate(-88.000000, 0.000000)" fill-rule="nonzero">
            <g id="Group" transform="translate(88.000000, 0.000000)">
                <path d="M142.2,1.6 C135.2,7.2 131,15.7 131,24.9 L131,154 L110.9,154 L110.9,24.9 C110.9,11.5 121.8,0.5 135.3,0.5 C137.7,0.6 140,0.9 142.2,1.6 L142.2,1.6 Z" id="Path" fill="url(#linearGradient-1)"></path>
                <path d="M176.6,1.6 C172.4,5 169.2,9.4 167.3,14.5 C166.1,17.8 165.4,21.3 165.4,25 L165.4,154 L145.3,154 L145.3,25 C145.3,11.6 156.2,0.6 169.7,0.6 C172,0.6 174.3,0.9 176.6,1.6 Z" id="Path" fill="url(#linearGradient-2)"></path>
                <path d="M241.3,40.4 C241.3,36.5 238.2,33.4 234.3,33.4 L174.1,33.4 L174.1,47.4 L234.3,47.4 C238.2,47.5 241.3,44.3 241.3,40.4 Z" id="Path" fill="url(#linearGradient-3)"></path>
                <path d="M174.1,28.5 L234.3,28.5 C238.2,28.5 241.3,25.4 241.3,21.5 C241.3,17.6 238.2,14.5 234.3,14.5 L176,14.5 C174.8,17.8 174.1,21.3 174.1,25 L174.1,28.5 Z" id="Path" fill="url(#linearGradient-4)"></path>
                <path d="M107.9,1.6 C100.9,7.2 96.7,15.7 96.7,24.9 L96.7,154 L76.6,154 L76.6,25 C76.6,21.3 77.4,17.7 79,14.5 C82.9,6.3 91.3,0.6 101,0.6 C103.3,0.6 105.6,0.9 107.9,1.6 Z" id="Path" fill="url(#linearGradient-5)"></path>
                <path d="M76.6,33.4 L76.6,47.4 L7.7,47.4 C3.8,47.4 0.7,44.3 0.7,40.4 C0.7,38.5 1.5,36.7 2.8,35.4 C4.1,34.1 5.8,33.3 7.8,33.3 L76.6,33.3 L76.6,33.4 Z" id="Path" fill="url(#linearGradient-6)"></path>
                <path d="M78.9,14.5 C77.4,17.7 76.5,21.2 76.5,25 L76.5,28.6 L7.6,28.6 C3.7,28.6 0.6,25.5 0.6,21.6 C0.6,17.7 3.7,14.6 7.6,14.6 L78.9,14.6 L78.9,14.5 Z" id="Path" fill="url(#linearGradient-7)"></path>
                <polygon id="Path" fill="url(#linearGradient-8)" points="174.1 33.4 185.4 33.4 185.4 47.4 174.1 47.4"></polygon>
                <path d="M174.1,24.9 L174.1,28.5 L185.4,28.5 L185.4,25 C185.4,21.4 186.1,17.8 187.3,14.5 L176,14.5 C174.8,17.8 174.1,21.3 174.1,24.9 Z" id="Path" fill="url(#linearGradient-9)"></path>
            </g>
        </g>
    </g>
</svg>